; OM File Header - Saved 2024/02/06 13:56:41
; (7.01 :patc (om-make-point 40.0D0 10) (om-make-point 50 50) (om-make-point 1734 1029) "" 183 0 "2023/10/03 14:40:09" "2023/10/10 13:12:06")
; End File Header
(in-package :om)(load-lib-for (quote ("OMTristan" "OMJosh")))(setf *om-current-persistent* (om-load-patch1 "harmony res" (quote ((let ((box (om-load-boxcall (quote abstraction) "making families" (om-load-patch-abs1 "making families" (quote ((let ((box (om-load-editor-box1 "dragged 17" (quote chord) (quote ((om-load-inputfun (quote input-funbox) "object" "self" nil) (om-load-inputfun (quote input-funbox) "pitches (list of midicents)" "lmidic" (list 6000)) (om-load-inputfun (quote input-funbox) "velocities (list of values 0-127)" "lvel" (list 100)) (om-load-inputfun (quote input-funbox) "offsets (list of values in ms)" "loffset" (list 0)) (om-load-inputfun (quote input-funbox) "durations (list of values in ms)" "ldur" (list 1000)) (om-load-inputfun (quote input-funbox) "MIDI channels (list of values 0-16)" "lchan" (list 1)))) (om-make-point 1165 178) (om-make-point 60 90) (let ((thechord (make-instance (quote chord) :lmidic (quote (3740 4582 5180 5644 6022 6342 6620)) :ldur (quote (1000 1000 1000 1000 1000 1000 1000)) :lvel (quote (100 100 100 100 100 100 100)) :loffset (quote (0 0 0 0 0 0 0)) :lchan (quote (1 1 1 1 1 1 1))))) (load-port-info thechord (quote (0 0 0 0 0 0 0))) (init-mus-color thechord (quote nil)) (set-extra-pairs thechord (quote nil)) (set-tonalite thechord nil) thechord) "x" nil (pairlis (quote (scale show-stems cursor-mode obj-mode score-mode winpos winsize mode grillestep notechancolor? zoom player inport outport deltapict cmnpref staff fontsize approx)) (list nil (quote t) (quote :normal) 0 0 (om-make-point 400 20) (om-make-point 370 280) 0 1000 nil 1 (quote :midi-player) nil nil (om-make-point 0 0) (let ((newobj (make-instance (quote edition-values)))) (setf (paper-size newobj) (om-make-point 600 800)) (setf (top-margin newobj) 2) (setf (left-margin newobj) 1) (setf (right-margin newobj) 1) (setf (bottom-margin newobj) 1) (setf (orientation newobj) nil) (setf (scale newobj) nil) (setf (system-space newobj) (quote (1))) (setf (system-color newobj) (quote nil)) (setf (line-space newobj) 1) (setf (title newobj) nil) (setf (show-title? newobj) nil) (setf (show-page? newobj) nil) (setf (sheet-id newobj) nil) (setf (page-mode newobj) nil) newobj) (quote gf) 24 4)) t nil nil nil))) (when (fboundp (quote set-active)) (set-active box nil)) box) (let ((box (om-load-editor-box1 "dragged 16" (quote chord) (quote ((om-load-inputfun (quote input-funbox) "object" "self" nil) (om-load-inputfun (quote input-funbox) "pitches (list of midicents)" "lmidic" (list 6000)) (om-load-inputfun (quote input-funbox) "velocities (list of values 0-127)" "lvel" (list 100)) (om-load-inputfun (quote input-funbox) "offsets (list of values in ms)" "loffset" (list 0)) (om-load-inputfun (quote input-funbox) "durations (list of values in ms)" "ldur" (list 1000)) (om-load-inputfun (quote input-funbox) "MIDI channels (list of values 0-16)" "lchan" (list 1)))) (om-make-point 1099 176) (om-make-point 60 90) (let ((thechord (make-instance (quote chord) :lmidic (quote (4310 4966 5470 5876 7616 6510 6768)) :ldur (quote (1000 1000 1000 1000 1000 1000 1000)) :lvel (quote (100 100 100 100 100 100 100)) :loffset (quote (0 0 0 0 0 0 0)) :lchan (quote (1 1 1 1 1 1 1))))) (load-port-info thechord (quote (0 0 0 0 0 0 0))) (init-mus-color thechord (quote nil)) (set-extra-pairs thechord (quote nil)) (set-tonalite thechord nil) thechord) "x" nil (pairlis (quote (scale show-stems cursor-mode obj-mode score-mode winpos winsize mode grillestep notechancolor? zoom player inport outport deltapict cmnpref staff fontsize approx)) (list nil (quote t) (quote :normal) 0 0 (om-make-point 400 20) (om-make-point 370 280) 0 1000 nil 1 (quote :midi-player) nil nil (om-make-point 0 0) (let ((newobj (make-instance (quote edition-values)))) (setf (paper-size newobj) (om-make-point 600 800)) (setf (top-margin newobj) 2) (setf (left-margin newobj) 1) (setf (right-margin newobj) 1) (setf (bottom-margin newobj) 1) (setf (orientation newobj) nil) (setf (scale newobj) nil) (setf (system-space newobj) (quote (1))) (setf (system-color newobj) (quote nil)) (setf (line-space newobj) 1) (setf (title newobj) nil) (setf (show-title? newobj) nil) (setf (show-page? newobj) nil) (setf (sheet-id newobj) nil) (setf (page-mode newobj) nil) newobj) (quote gf) 24 4)) t nil nil nil))) (when (fboundp (quote set-active)) (set-active box nil)) box) (let ((box (om-load-editor-box1 "dragged 15" (quote chord) (quote ((om-load-inputfun (quote input-funbox) "object" "self" nil) (om-load-inputfun (quote input-funbox) "pitches (list of midicents)" "lmidic" (list 6000)) (om-load-inputfun (quote input-funbox) "velocities (list of values 0-127)" "lvel" (list 100)) (om-load-inputfun (quote input-funbox) "offsets (list of values in ms)" "loffset" (list 0)) (om-load-inputfun (quote input-funbox) "durations (list of values in ms)" "ldur" (list 1000)) (om-load-inputfun (quote input-funbox) "MIDI channels (list of values 0-16)" "lchan" (list 1)))) (om-make-point 1034 179) (om-make-point 60 90) (let ((thechord (make-instance (quote chord) :lmidic (quote (4752 5292 7126 6088 6396 6666 6908)) :ldur (quote (1000 1000 1000 1000 1000 1000 1000)) :lvel (quote (100 100 100 100 100 100 100)) :loffset (quote (0 0 0 0 0 0 0)) :lchan (quote (1 1 1 1 1 1 1))))) (load-port-info thechord (quote (0 0 0 0 0 0 0))) (init-mus-color thechord (quote nil)) (set-extra-pairs thechord (quote nil)) (set-tonalite thechord nil) thechord) "x" nil (pairlis (quote (scale show-stems cursor-mode obj-mode score-mode winpos winsize mode grillestep notechancolor? zoom player inport outport deltapict cmnpref staff fontsize approx)) (list nil (quote t) (quote :normal) 0 0 (om-make-point 400 20) (om-make-point 370 280) 0 1000 nil 1 (quote :midi-player) nil nil (om-make-point 0 0) (let ((newobj (make-instance (quote edition-values)))) (setf (paper-size newobj) (om-make-point 600 800)) (setf (top-margin newobj) 2) (setf (left-margin newobj) 1) (setf (right-margin newobj) 1) (setf (bottom-margin newobj) 1) (setf (orientation newobj) nil) (setf (scale newobj) nil) (setf (system-space newobj) (quote (1))) (setf (system-color newobj) (quote nil)) (setf (line-space newobj) 1) (setf (title newobj) nil) (setf (show-title? newobj) nil) (setf (show-page? newobj) nil) (setf (sheet-id newobj) nil) (setf (page-mode newobj) nil) newobj) (quote gf) 24 4)) t nil nil nil))) (when (fboundp (quote set-active)) (set-active box nil)) box) (let ((box (om-load-editor-box1 "dragged 14" (quote chord) (quote ((om-load-inputfun (quote input-funbox) "object" "self" nil) (om-load-inputfun (quote input-funbox) "pitches (list of midicents)" "lmidic" (list 6000)) (om-load-inputfun (quote input-funbox) "velocities (list of values 0-127)" "lvel" (list 100)) (om-load-inputfun (quote input-funbox) "offsets (list of values in ms)" "loffset" (list 0)) (om-load-inputfun (quote input-funbox) "durations (list of values in ms)" "ldur" (list 1000)) (om-load-inputfun (quote input-funbox) "MIDI channels (list of values 0-16)" "lchan" (list 1)))) (om-make-point 967 182) (om-make-point 60 90) (let ((thechord (make-instance (quote chord) :lmidic (quote (5116 5574 5956 6282 7266 6816 7042)) :ldur (quote (1000 1000 1000 1000 1000 1000 1000)) :lvel (quote (100 100 100 100 100 100 100)) :loffset (quote (0 0 0 0 0 0 0)) :lchan (quote (1 1 1 1 1 1 1))))) (load-port-info thechord (quote (0 0 0 0 0 0 0))) (init-mus-color thechord (quote nil)) (set-extra-pairs thechord (quote nil)) (set-tonalite thechord nil) thechord) "x" nil (pairlis (quote (scale show-stems cursor-mode obj-mode score-mode winpos winsize mode grillestep notechancolor? zoom player inport outport deltapict cmnpref staff fontsize approx)) (list nil (quote t) (quote :normal) 0 0 (om-make-point 400 20) (om-make-point 370 280) 0 1000 nil 1 (quote :midi-player) nil nil (om-make-point 0 0) (let ((newobj (make-instance (quote edition-values)))) (setf (paper-size newobj) (om-make-point 600 800)) (setf (top-margin newobj) 2) (setf (left-margin newobj) 1) (setf (right-margin newobj) 1) (setf (bottom-margin newobj) 1) (setf (orientation newobj) nil) (setf (scale newobj) nil) (setf (system-space newobj) (quote (1))) (setf (system-color newobj) (quote nil)) (setf (line-space newobj) 1) (setf (title newobj) nil) (setf (show-title? newobj) nil) (setf (show-page? newobj) nil) (setf (sheet-id newobj) nil) (setf (page-mode newobj) nil) newobj) (quote gf) 24 4)) t nil nil nil))) (when (fboundp (quote set-active)) (set-active box nil)) box) (let ((box (om-load-editor-box1 "dragged 13" (quote chord) (quote ((om-load-inputfun (quote input-funbox) "object" "self" nil) (om-load-inputfun (quote input-funbox) "pitches (list of midicents)" "lmidic" (list 6000)) (om-load-inputfun (quote input-funbox) "velocities (list of values 0-127)" "lvel" (list 100)) (om-load-inputfun (quote input-funbox) "offsets (list of values in ms)" "loffset" (list 0)) (om-load-inputfun (quote input-funbox) "durations (list of values in ms)" "ldur" (list 1000)) (om-load-inputfun (quote input-funbox) "MIDI channels (list of values 0-16)" "lchan" (list 1)))) (om-make-point 906 186) (om-make-point 60 90) (let ((thechord (make-instance (quote chord) :lmidic (quote (5702 6056 6364 6636 6880 7098 7296)) :ldur (quote (1000 1000 1000 1000 1000 1000 1000)) :lvel (quote (100 100 100 100 100 100 100)) :loffset (quote (0 0 0 0 0 0 0)) :lchan (quote (1 1 1 1 1 1 1))))) (load-port-info thechord (quote (0 0 0 0 0 0 0))) (init-mus-color thechord (quote nil)) (set-extra-pairs thechord (quote nil)) (set-tonalite thechord nil) thechord) "x" nil (pairlis (quote (scale show-stems cursor-mode obj-mode score-mode winpos winsize mode grillestep notechancolor? zoom player inport outport deltapict cmnpref staff fontsize approx)) (list nil (quote t) (quote :normal) 0 0 (om-make-point 400 20) (om-make-point 370 280) 0 1000 nil 1 (quote :midi-player) nil nil (om-make-point 0 0) (let ((newobj (make-instance (quote edition-values)))) (setf (paper-size newobj) (om-make-point 600 800)) (setf (top-margin newobj) 2) (setf (left-margin newobj) 1) (setf (right-margin newobj) 1) (setf (bottom-margin newobj) 1) (setf (orientation newobj) nil) (setf (scale newobj) nil) (setf (system-space newobj) (quote (1))) (setf (system-color newobj) (quote nil)) (setf (line-space newobj) 1) (setf (title newobj) nil) (setf (show-title? newobj) nil) (setf (show-page? newobj) nil) (setf (sheet-id newobj) nil) (setf (page-mode newobj) nil) newobj) (quote gf) 24 4)) t nil nil nil))) (when (fboundp (quote set-active)) (set-active box nil)) box) (let ((box (om-load-editor-box1 "dragged 12" (quote chord) (quote ((om-load-inputfun (quote input-funbox) "object" "self" nil) (om-load-inputfun (quote input-funbox) "pitches (list of midicents)" "lmidic" (list 6000)) (om-load-inputfun (quote input-funbox) "velocities (list of values 0-127)" "lvel" (list 100)) (om-load-inputfun (quote input-funbox) "offsets (list of values in ms)" "loffset" (list 0)) (om-load-inputfun (quote input-funbox) "durations (list of values in ms)" "ldur" (list 1000)) (om-load-inputfun (quote input-funbox) "MIDI channels (list of values 0-16)" "lchan" (list 1)))) (om-make-point 837 197) (om-make-point 60 90) (let ((thechord (make-instance (quote chord) :lmidic (quote (6576 6862 7122 7356 7568 7760 7938)) :ldur (quote (1000 1000 1000 1000 1000 1000 1000)) :lvel (quote (100 100 100 100 100 100 100)) :loffset (quote (0 0 0 0 0 0 0)) :lchan (quote (1 1 1 1 1 1 1))))) (load-port-info thechord (quote (0 0 0 0 0 0 0))) (init-mus-color thechord (quote nil)) (set-extra-pairs thechord (quote nil)) (set-tonalite thechord nil) thechord) "x" nil (pairlis (quote (scale show-stems cursor-mode obj-mode score-mode winpos winsize mode grillestep notechancolor? zoom player inport outport deltapict cmnpref staff fontsize approx)) (list nil (quote t) (quote :normal) 0 0 (om-make-point 400 20) (om-make-point 370 280) 0 1000 nil 1 (quote :midi-player) nil nil (om-make-point 0 0) (let ((newobj (make-instance (quote edition-values)))) (setf (paper-size newobj) (om-make-point 600 800)) (setf (top-margin newobj) 2) (setf (left-margin newobj) 1) (setf (right-margin newobj) 1) (setf (bottom-margin newobj) 1) (setf (orientation newobj) nil) (setf (scale newobj) nil) (setf (system-space newobj) (quote (1))) (setf (system-color newobj) (quote nil)) (setf (line-space newobj) 1) (setf (title newobj) nil) (setf (show-title? newobj) nil) (setf (show-page? newobj) nil) (setf (sheet-id newobj) nil) (setf (page-mode newobj) nil) newobj) (quote gf) 24 4)) t nil nil nil))) (when (fboundp (quote set-active)) (set-active box nil)) box) (let ((box (om-load-editor-box1 "dragged 11" (quote chord) (quote ((om-load-inputfun (quote input-funbox) "object" "self" nil) (om-load-inputfun (quote input-funbox) "pitches (list of midicents)" "lmidic" (list 6000)) (om-load-inputfun (quote input-funbox) "velocities (list of values 0-127)" "lvel" (list 100)) (om-load-inputfun (quote input-funbox) "offsets (list of values in ms)" "loffset" (list 0)) (om-load-inputfun (quote input-funbox) "durations (list of values in ms)" "ldur" (list 1000)) (om-load-inputfun (quote input-funbox) "MIDI channels (list of values 0-16)" "lchan" (list 1)))) (om-make-point 757 194) (om-make-point 60 90) (let ((thechord (make-instance (quote chord) :lmidic (quote (8550 6066 6348 6600 6826 7030 7220)) :ldur (quote (1000 1000 1000 1000 1000 1000 1000)) :lvel (quote (100 100 100 100 100 100 100)) :loffset (quote (0 0 0 0 0 0 0)) :lchan (quote (1 1 1 1 1 1 1))))) (load-port-info thechord (quote (0 0 0 0 0 0 0))) (init-mus-color thechord (quote nil)) (set-extra-pairs thechord (quote nil)) (set-tonalite thechord nil) thechord) "x" nil (pairlis (quote (scale show-stems cursor-mode obj-mode score-mode winpos winsize mode grillestep notechancolor? zoom player inport outport deltapict cmnpref staff fontsize approx)) (list nil (quote t) (quote :normal) 0 0 (om-make-point 400 20) (om-make-point 370 280) 0 1000 nil 1 (quote :midi-player) nil nil (om-make-point 0 0) (let ((newobj (make-instance (quote edition-values)))) (setf (paper-size newobj) (om-make-point 600 800)) (setf (top-margin newobj) 2) (setf (left-margin newobj) 1) (setf (right-margin newobj) 1) (setf (bottom-margin newobj) 1) (setf (orientation newobj) nil) (setf (scale newobj) nil) (setf (system-space newobj) (quote (1))) (setf (system-color newobj) (quote nil)) (setf (line-space newobj) 1) (setf (title newobj) nil) (setf (show-title? newobj) nil) (setf (show-page? newobj) nil) (setf (sheet-id newobj) nil) (setf (page-mode newobj) nil) newobj) (quote gf) 24 4)) t nil nil nil))) (when (fboundp (quote set-active)) (set-active box nil)) box) (let ((box (om-load-editor-box1 "dragged 10" (quote chord) (quote ((om-load-inputfun (quote input-funbox) "object" "self" nil) (om-load-inputfun (quote input-funbox) "pitches (list of midicents)" "lmidic" (list 6000)) (om-load-inputfun (quote input-funbox) "velocities (list of values 0-127)" "lvel" (list 100)) (om-load-inputfun (quote input-funbox) "offsets (list of values in ms)" "loffset" (list 0)) (om-load-inputfun (quote input-funbox) "durations (list of values in ms)" "ldur" (list 1000)) (om-load-inputfun (quote input-funbox) "MIDI channels (list of values 0-16)" "lchan" (list 1)))) (om-make-point 691 204) (om-make-point 60 90) (let ((thechord (make-instance (quote chord) :lmidic (quote (6984 7226 7450 7652 7840 8012 6074)) :ldur (quote (1000 1000 1000 1000 1000 1000 1000)) :lvel (quote (100 100 100 100 100 100 100)) :loffset (quote (0 0 0 0 0 0 0)) :lchan (quote (1 1 1 1 1 1 1))))) (load-port-info thechord (quote (0 0 0 0 0 0 0))) (init-mus-color thechord (quote nil)) (set-extra-pairs thechord (quote nil)) (set-tonalite thechord nil) thechord) "x" nil (pairlis (quote (scale show-stems cursor-mode obj-mode score-mode winpos winsize mode grillestep notechancolor? zoom player inport outport deltapict cmnpref staff fontsize approx)) (list nil (quote t) (quote :normal) 0 0 (om-make-point 400 20) (om-make-point 370 280) 0 1000 nil 1 (quote :midi-player) nil nil (om-make-point 0 0) (let ((newobj (make-instance (quote edition-values)))) (setf (paper-size newobj) (om-make-point 600 800)) (setf (top-margin newobj) 2) (setf (left-margin newobj) 1) (setf (right-margin newobj) 1) (setf (bottom-margin newobj) 1) (setf (orientation newobj) nil) (setf (scale newobj) nil) (setf (system-space newobj) (quote (1))) (setf (system-color newobj) (quote nil)) (setf (line-space newobj) 1) (setf (title newobj) nil) (setf (show-title? newobj) nil) (setf (show-page? newobj) nil) (setf (sheet-id newobj) nil) (setf (page-mode newobj) nil) newobj) (quote gf) 24 4)) t nil nil nil))) (when (fboundp (quote set-active)) (set-active box nil)) box) (let ((box (om-load-editor-box1 "dragged 9" (quote chord) (quote ((om-load-inputfun (quote input-funbox) "object" "self" nil) (om-load-inputfun (quote input-funbox) "pitches (list of midicents)" "lmidic" (list 6000)) (om-load-inputfun (quote input-funbox) "velocities (list of values 0-127)" "lvel" (list 100)) (om-load-inputfun (quote input-funbox) "offsets (list of values in ms)" "loffset" (list 0)) (om-load-inputfun (quote input-funbox) "durations (list of values in ms)" "ldur" (list 1000)) (om-load-inputfun (quote input-funbox) "MIDI channels (list of values 0-16)" "lchan" (list 1)))) (om-make-point 616 191) (om-make-point 60 90) (let ((thechord (make-instance (quote chord) :lmidic (quote (6386 6648 6890 7106 7304 5388 7656)) :ldur (quote (1000 1000 1000 1000 1000 1000 1000)) :lvel (quote (100 100 100 100 100 100 100)) :loffset (quote (0 0 0 0 0 0 0)) :lchan (quote (1 1 1 1 1 1 1))))) (load-port-info thechord (quote (0 0 0 0 0 0 0))) (init-mus-color thechord (quote nil)) (set-extra-pairs thechord (quote nil)) (set-tonalite thechord nil) thechord) "x" nil (pairlis (quote (scale show-stems cursor-mode obj-mode score-mode winpos winsize mode grillestep notechancolor? zoom player inport outport deltapict cmnpref staff fontsize approx)) (list nil (quote t) (quote :normal) 0 0 (om-make-point 400 20) (om-make-point 370 280) 0 1000 nil 1 (quote :midi-player) nil nil (om-make-point 0 0) (let ((newobj (make-instance (quote edition-values)))) (setf (paper-size newobj) (om-make-point 600 800)) (setf (top-margin newobj) 2) (setf (left-margin newobj) 1) (setf (right-margin newobj) 1) (setf (bottom-margin newobj) 1) (setf (orientation newobj) nil) (setf (scale newobj) nil) (setf (system-space newobj) (quote (1))) (setf (system-color newobj) (quote nil)) (setf (line-space newobj) 1) (setf (title newobj) nil) (setf (show-title? newobj) nil) (setf (show-page? newobj) nil) (setf (sheet-id newobj) nil) (setf (page-mode newobj) nil) newobj) (quote gf) 24 4)) t nil nil nil))) (when (fboundp (quote set-active)) (set-active box nil)) box) (let ((box (om-load-editor-box1 "dragged 8" (quote chord) (quote ((om-load-inputfun (quote input-funbox) "object" "self" nil) (om-load-inputfun (quote input-funbox) "pitches (list of midicents)" "lmidic" (list 6000)) (om-load-inputfun (quote input-funbox) "velocities (list of values 0-127)" "lvel" (list 100)) (om-load-inputfun (quote input-funbox) "offsets (list of values in ms)" "loffset" (list 0)) (om-load-inputfun (quote input-funbox) "durations (list of values in ms)" "ldur" (list 1000)) (om-load-inputfun (quote input-funbox) "MIDI channels (list of values 0-16)" "lchan" (list 1)))) (om-make-point 549 182) (om-make-point 60 90) (let ((thechord (make-instance (quote chord) :lmidic (quote (6772 6996 7206 5996 7572 7736 7890)) :ldur (quote (1000 1000 1000 1000 1000 1000 1000)) :lvel (quote (100 100 100 100 100 100 100)) :loffset (quote (0 0 0 0 0 0 0)) :lchan (quote (1 1 1 1 1 1 1))))) (load-port-info thechord (quote (0 0 0 0 0 0 0))) (init-mus-color thechord (quote nil)) (set-extra-pairs thechord (quote nil)) (set-tonalite thechord nil) thechord) "x" nil (pairlis (quote (scale show-stems cursor-mode obj-mode score-mode winpos winsize mode grillestep notechancolor? zoom player inport outport deltapict cmnpref staff fontsize approx)) (list nil (quote t) (quote :normal) 0 0 (om-make-point 400 20) (om-make-point 370 280) 0 1000 nil 1 (quote :midi-player) nil nil (om-make-point 0 0) (let ((newobj (make-instance (quote edition-values)))) (setf (paper-size newobj) (om-make-point 600 800)) (setf (top-margin newobj) 2) (setf (left-margin newobj) 1) (setf (right-margin newobj) 1) (setf (bottom-margin newobj) 1) (setf (orientation newobj) nil) (setf (scale newobj) nil) (setf (system-space newobj) (quote (1))) (setf (system-color newobj) (quote nil)) (setf (line-space newobj) 1) (setf (title newobj) nil) (setf (show-title? newobj) nil) (setf (show-page? newobj) nil) (setf (sheet-id newobj) nil) (setf (page-mode newobj) nil) newobj) (quote gf) 24 4)) t nil nil nil))) (when (fboundp (quote set-active)) (set-active box nil)) box) (let ((box (om-load-editor-box1 "dragged 7" (quote chord) (quote ((om-load-inputfun (quote input-funbox) "object" "self" nil) (om-load-inputfun (quote input-funbox) "pitches (list of midicents)" "lmidic" (list 6000)) (om-load-inputfun (quote input-funbox) "velocities (list of values 0-127)" "lvel" (list 100)) (om-load-inputfun (quote input-funbox) "offsets (list of values in ms)" "loffset" (list 0)) (om-load-inputfun (quote input-funbox) "durations (list of values in ms)" "ldur" (list 1000)) (om-load-inputfun (quote input-funbox) "MIDI channels (list of values 0-16)" "lchan" (list 1)))) (om-make-point 484 183) (om-make-point 60 90) (let ((thechord (make-instance (quote chord) :lmidic (quote (6154 6364 6558 8138 6904 7060 7206)) :ldur (quote (1000 1000 1000 1000 1000 1000 1000)) :lvel (quote (100 100 100 100 100 100 100)) :loffset (quote (0 0 0 0 0 0 0)) :lchan (quote (1 1 1 1 1 1 1))))) (load-port-info thechord (quote (0 0 0 0 0 0 0))) (init-mus-color thechord (quote nil)) (set-extra-pairs thechord (quote nil)) (set-tonalite thechord nil) thechord) "x" nil (pairlis (quote (scale show-stems cursor-mode obj-mode score-mode winpos winsize mode grillestep notechancolor? zoom player inport outport deltapict cmnpref staff fontsize approx)) (list nil (quote t) (quote :normal) 0 0 (om-make-point 400 20) (om-make-point 370 280) 0 1000 nil 1 (quote :midi-player) nil nil (om-make-point 0 0) (let ((newobj (make-instance (quote edition-values)))) (setf (paper-size newobj) (om-make-point 600 800)) (setf (top-margin newobj) 2) (setf (left-margin newobj) 1) (setf (right-margin newobj) 1) (setf (bottom-margin newobj) 1) (setf (orientation newobj) nil) (setf (scale newobj) nil) (setf (system-space newobj) (quote (1))) (setf (system-color newobj) (quote nil)) (setf (line-space newobj) 1) (setf (title newobj) nil) (setf (show-title? newobj) nil) (setf (show-page? newobj) nil) (setf (sheet-id newobj) nil) (setf (page-mode newobj) nil) newobj) (quote gf) 24 4)) t nil nil nil))) (when (fboundp (quote set-active)) (set-active box nil)) box) (let ((box (om-load-editor-box1 "dragged 6" (quote chord) (quote ((om-load-inputfun (quote input-funbox) "object" "self" nil) (om-load-inputfun (quote input-funbox) "pitches (list of midicents)" "lmidic" (list 6000)) (om-load-inputfun (quote input-funbox) "velocities (list of values 0-127)" "lvel" (list 100)) (om-load-inputfun (quote input-funbox) "offsets (list of values in ms)" "loffset" (list 0)) (om-load-inputfun (quote input-funbox) "durations (list of values in ms)" "ldur" (list 1000)) (om-load-inputfun (quote input-funbox) "MIDI channels (list of values 0-16)" "lchan" (list 1)))) (om-make-point 421 182) (om-make-point 60 90) (let ((thechord (make-instance (quote chord) :lmidic (quote (7132 7326 7510 7678 7838 6584 8124)) :ldur (quote (1000 1000 1000 1000 1000 1000 1000)) :lvel (quote (100 100 100 100 100 100 100)) :loffset (quote (0 0 0 0 0 0 0)) :lchan (quote (1 1 1 1 1 1 1))))) (load-port-info thechord (quote (0 0 0 0 0 0 0))) (init-mus-color thechord (quote nil)) (set-extra-pairs thechord (quote nil)) (set-tonalite thechord nil) thechord) "x" nil (pairlis (quote (scale show-stems cursor-mode obj-mode score-mode winpos winsize mode grillestep notechancolor? zoom player inport outport deltapict cmnpref staff fontsize approx)) (list nil (quote t) (quote :normal) 0 0 (om-make-point 400 20) (om-make-point 370 280) 0 1000 nil 1 (quote :midi-player) nil nil (om-make-point 0 0) (let ((newobj (make-instance (quote edition-values)))) (setf (paper-size newobj) (om-make-point 600 800)) (setf (top-margin newobj) 2) (setf (left-margin newobj) 1) (setf (right-margin newobj) 1) (setf (bottom-margin newobj) 1) (setf (orientation newobj) nil) (setf (scale newobj) nil) (setf (system-space newobj) (quote (1))) (setf (system-color newobj) (quote nil)) (setf (line-space newobj) 1) (setf (title newobj) nil) (setf (show-title? newobj) nil) (setf (show-page? newobj) nil) (setf (sheet-id newobj) nil) (setf (page-mode newobj) nil) newobj) (quote gf) 24 4)) t nil nil nil))) (when (fboundp (quote set-active)) (set-active box nil)) box) (let ((box (om-load-editor-box1 "dragged 5" (quote chord) (quote ((om-load-inputfun (quote input-funbox) "object" "self" nil) (om-load-inputfun (quote input-funbox) "pitches (list of midicents)" "lmidic" (list 6000)) (om-load-inputfun (quote input-funbox) "velocities (list of values 0-127)" "lvel" (list 100)) (om-load-inputfun (quote input-funbox) "offsets (list of values in ms)" "loffset" (list 0)) (om-load-inputfun (quote input-funbox) "durations (list of values in ms)" "ldur" (list 1000)) (om-load-inputfun (quote input-funbox) "MIDI channels (list of values 0-16)" "lchan" (list 1)))) (om-make-point 353 189) (om-make-point 60 90) (let ((thechord (make-instance (quote chord) :lmidic (quote (8284 8454 8618 7366 8910 9042 9170)) :ldur (quote (1000 1000 1000 1000 1000 1000 1000)) :lvel (quote (100 100 100 100 100 100 100)) :loffset (quote (0 0 0 0 0 0 0)) :lchan (quote (1 1 1 1 1 1 1))))) (load-port-info thechord (quote (0 0 0 0 0 0 0))) (init-mus-color thechord (quote nil)) (set-extra-pairs thechord (quote nil)) (set-tonalite thechord nil) thechord) "x" nil (pairlis (quote (scale show-stems cursor-mode obj-mode score-mode winpos winsize mode grillestep notechancolor? zoom player inport outport deltapict cmnpref staff fontsize approx)) (list nil (quote t) (quote :normal) 0 0 (om-make-point 400 20) (om-make-point 370 280) 0 1000 nil 1 (quote :midi-player) nil nil (om-make-point 0 0) (let ((newobj (make-instance (quote edition-values)))) (setf (paper-size newobj) (om-make-point 600 800)) (setf (top-margin newobj) 2) (setf (left-margin newobj) 1) (setf (right-margin newobj) 1) (setf (bottom-margin newobj) 1) (setf (orientation newobj) nil) (setf (scale newobj) nil) (setf (system-space newobj) (quote (1))) (setf (system-color newobj) (quote nil)) (setf (line-space newobj) 1) (setf (title newobj) nil) (setf (show-title? newobj) nil) (setf (show-page? newobj) nil) (setf (sheet-id newobj) nil) (setf (page-mode newobj) nil) newobj) (quote gf) 24 4)) t nil nil nil))) (when (fboundp (quote set-active)) (set-active box nil)) box) (let ((box (om-load-editor-box1 "dragged 4" (quote chord) (quote ((om-load-inputfun (quote input-funbox) "object" "self" nil) (om-load-inputfun (quote input-funbox) "pitches (list of midicents)" "lmidic" (list 6000)) (om-load-inputfun (quote input-funbox) "velocities (list of values 0-127)" "lvel" (list 100)) (om-load-inputfun (quote input-funbox) "offsets (list of values in ms)" "loffset" (list 0)) (om-load-inputfun (quote input-funbox) "durations (list of values in ms)" "ldur" (list 1000)) (om-load-inputfun (quote input-funbox) "MIDI channels (list of values 0-16)" "lchan" (list 1)))) (om-make-point 287 188) (om-make-point 60 90) (let ((thechord (make-instance (quote chord) :lmidic (quote (7664 7824 7978 7418 8254 8380 8502)) :ldur (quote (1000 1000 1000 1000 1000 1000 1000)) :lvel (quote (100 100 100 100 100 100 100)) :loffset (quote (0 0 0 0 0 0 0)) :lchan (quote (1 1 1 1 1 1 1))))) (load-port-info thechord (quote (0 0 0 0 0 0 0))) (init-mus-color thechord (quote nil)) (set-extra-pairs thechord (quote nil)) (set-tonalite thechord nil) thechord) "x" nil (pairlis (quote (scale show-stems cursor-mode obj-mode score-mode winpos winsize mode grillestep notechancolor? zoom player inport outport deltapict cmnpref staff fontsize approx)) (list nil (quote t) (quote :normal) 0 0 (om-make-point 400 20) (om-make-point 370 280) 0 1000 nil 1 (quote :midi-player) nil nil (om-make-point 0 0) (let ((newobj (make-instance (quote edition-values)))) (setf (paper-size newobj) (om-make-point 600 800)) (setf (top-margin newobj) 2) (setf (left-margin newobj) 1) (setf (right-margin newobj) 1) (setf (bottom-margin newobj) 1) (setf (orientation newobj) nil) (setf (scale newobj) nil) (setf (system-space newobj) (quote (1))) (setf (system-color newobj) (quote nil)) (setf (line-space newobj) 1) (setf (title newobj) nil) (setf (show-title? newobj) nil) (setf (show-page? newobj) nil) (setf (sheet-id newobj) nil) (setf (page-mode newobj) nil) newobj) (quote gf) 24 4)) t nil nil nil))) (when (fboundp (quote set-active)) (set-active box nil)) box) (let ((box (om-load-editor-box1 "dragged 3" (quote chord) (quote ((om-load-inputfun (quote input-funbox) "object" "self" nil) (om-load-inputfun (quote input-funbox) "pitches (list of midicents)" "lmidic" (list 6000)) (om-load-inputfun (quote input-funbox) "velocities (list of values 0-127)" "lvel" (list 100)) (om-load-inputfun (quote input-funbox) "offsets (list of values in ms)" "loffset" (list 0)) (om-load-inputfun (quote input-funbox) "durations (list of values in ms)" "ldur" (list 1000)) (om-load-inputfun (quote input-funbox) "MIDI channels (list of values 0-16)" "lchan" (list 1)))) (om-make-point 216 186) (om-make-point 60 90) (let ((thechord (make-instance (quote chord) :lmidic (quote (8766 8906 9040 9164 7886 9398 9506)) :ldur (quote (1000 1000 1000 1000 1000 1000 1000)) :lvel (quote (100 100 100 100 100 100 100)) :loffset (quote (0 0 0 0 0 0 0)) :lchan (quote (1 1 1 1 1 1 1))))) (load-port-info thechord (quote (0 0 0 0 0 0 0))) (init-mus-color thechord (quote nil)) (set-extra-pairs thechord (quote nil)) (set-tonalite thechord nil) thechord) "x" nil (pairlis (quote (scale show-stems cursor-mode obj-mode score-mode winpos winsize mode grillestep notechancolor? zoom player inport outport deltapict cmnpref staff fontsize approx)) (list nil (quote t) (quote :normal) 0 0 (om-make-point 400 20) (om-make-point 370 280) 0 1000 nil 1 (quote :midi-player) nil nil (om-make-point 0 0) (let ((newobj (make-instance (quote edition-values)))) (setf (paper-size newobj) (om-make-point 600 800)) (setf (top-margin newobj) 2) (setf (left-margin newobj) 1) (setf (right-margin newobj) 1) (setf (bottom-margin newobj) 1) (setf (orientation newobj) nil) (setf (scale newobj) nil) (setf (system-space newobj) (quote (1))) (setf (system-color newobj) (quote nil)) (setf (line-space newobj) 1) (setf (title newobj) nil) (setf (show-title? newobj) nil) (setf (show-page? newobj) nil) (setf (sheet-id newobj) nil) (setf (page-mode newobj) nil) newobj) (quote gf) 24 4)) t nil nil nil))) (when (fboundp (quote set-active)) (set-active box nil)) box) (let ((box (om-load-editor-box1 "dragged 2" (quote chord) (quote ((om-load-inputfun (quote input-funbox) "object" "self" nil) (om-load-inputfun (quote input-funbox) "pitches (list of midicents)" "lmidic" (list 6000)) (om-load-inputfun (quote input-funbox) "velocities (list of values 0-127)" "lvel" (list 100)) (om-load-inputfun (quote input-funbox) "offsets (list of values in ms)" "loffset" (list 0)) (om-load-inputfun (quote input-funbox) "durations (list of values in ms)" "ldur" (list 1000)) (om-load-inputfun (quote input-funbox) "MIDI channels (list of values 0-16)" "lchan" (list 1)))) (om-make-point 136 190) (om-make-point 60 90) (let ((thechord (make-instance (quote chord) :lmidic (quote (8322 8452 8576 8692 8804 8908 9010)) :ldur (quote (1000 1000 1000 1000 1000 1000 1000)) :lvel (quote (100 100 100 100 100 100 100)) :loffset (quote (0 0 0 0 0 0 0)) :lchan (quote (1 1 1 1 1 1 1))))) (load-port-info thechord (quote (0 0 0 0 0 0 0))) (init-mus-color thechord (quote nil)) (set-extra-pairs thechord (quote nil)) (set-tonalite thechord nil) thechord) "x" nil (pairlis (quote (scale show-stems cursor-mode obj-mode score-mode winpos winsize mode grillestep notechancolor? zoom player inport outport deltapict cmnpref staff fontsize approx)) (list nil (quote t) (quote :normal) 0 0 (om-make-point 400 20) (om-make-point 370 280) 0 1000 nil 1 (quote :midi-player) nil nil (om-make-point 0 0) (let ((newobj (make-instance (quote edition-values)))) (setf (paper-size newobj) (om-make-point 600 800)) (setf (top-margin newobj) 2) (setf (left-margin newobj) 1) (setf (right-margin newobj) 1) (setf (bottom-margin newobj) 1) (setf (orientation newobj) nil) (setf (scale newobj) nil) (setf (system-space newobj) (quote (1))) (setf (system-color newobj) (quote nil)) (setf (line-space newobj) 1) (setf (title newobj) nil) (setf (show-title? newobj) nil) (setf (show-page? newobj) nil) (setf (sheet-id newobj) nil) (setf (page-mode newobj) nil) newobj) (quote gf) 24 4)) t nil nil nil))) (when (fboundp (quote set-active)) (set-active box nil)) box) (let ((box (om-load-editor-box1 "dragged" (quote chord) (quote ((om-load-inputfun (quote input-funbox) "object" "self" nil) (om-load-inputfun (quote input-funbox) "pitches (list of midicents)" "lmidic" (list 6000)) (om-load-inputfun (quote input-funbox) "velocities (list of values 0-127)" "lvel" (list 100)) (om-load-inputfun (quote input-funbox) "offsets (list of values in ms)" "loffset" (list 0)) (om-load-inputfun (quote input-funbox) "durations (list of values in ms)" "ldur" (list 1000)) (om-load-inputfun (quote input-funbox) "MIDI channels (list of values 0-16)" "lchan" (list 1)))) (om-make-point 56 188) (om-make-point 60 90) (let ((thechord (make-instance (quote chord) :lmidic (quote (8996 9104 9208 9304 9398 9486 9572)) :ldur (quote (1000 1000 1000 1000 1000 1000 1000)) :lvel (quote (100 100 100 100 100 100 100)) :loffset (quote (0 0 0 0 0 0 0)) :lchan (quote (1 1 1 1 1 1 1))))) (load-port-info thechord (quote (0 0 0 0 0 0 0))) (init-mus-color thechord (quote nil)) (set-extra-pairs thechord (quote nil)) (set-tonalite thechord nil) thechord) "x" nil (pairlis (quote (scale show-stems cursor-mode obj-mode score-mode winpos winsize mode grillestep notechancolor? zoom player inport outport deltapict cmnpref staff fontsize approx)) (list nil (quote t) (quote :normal) 0 0 (om-make-point 400 20) (om-make-point 370 280) 0 1000 nil 1 (quote :midi-player) nil nil (om-make-point 0 0) (let ((newobj (make-instance (quote edition-values)))) (setf (paper-size newobj) (om-make-point 600 800)) (setf (top-margin newobj) 2) (setf (left-margin newobj) 1) (setf (right-margin newobj) 1) (setf (bottom-margin newobj) 1) (setf (orientation newobj) nil) (setf (scale newobj) nil) (setf (system-space newobj) (quote (1))) (setf (system-color newobj) (quote nil)) (setf (line-space newobj) 1) (setf (title newobj) nil) (setf (show-title? newobj) nil) (setf (show-page? newobj) nil) (setf (sheet-id newobj) nil) (setf (page-mode newobj) nil) newobj) (quote gf) 24 4)) t nil nil nil))) (when (fboundp (quote set-active)) (set-active box nil)) box) (let ((box (om-load-editor-box1 "CHORD-SEQ" (quote chord-seq) (quote ((om-load-inputfun (quote input-funbox) "object" "self" nil) (om-load-inputfun (quote input-funbox) "pitches (mc): list or list of lists" "lmidic" (list 6000)) (om-load-inputfun (quote input-funbox) "onsets (ms): list" "lonset" (list 0 1000)) (om-load-inputfun (quote input-funbox) "durations (ms): list or list of lists" "ldur" (list 1000)) (om-load-inputfun (quote input-funbox) "velocities (0-127): list or list of lists" "lvel" (list 100)) (om-load-inputfun (quote input-funbox) "offsets (ms): list or list of lists" "loffset" (list 0)) (om-load-inputfun (quote input-funbox) "MIDI channels (1-16): list or list of lists" "lchan" (list 1)) (om-load-inputfun (quote input-funbox) "relative chords duration (0-100)" "legato" 0))) (om-make-point 71 0) (om-make-point 862 168) (let ((newobj (when (find-class (quote chord-seq) nil) (make-instance (quote chord-seq) :lmidic (quote ((8996 9104 9208 9304 9398 9486 9572) (8322 8452 8576 8692 8804 8908 9010) (8766 8906 9040 9164 7886 9398 9506) (7664 7824 7978 7418 8254 8380 8502) (8284 8454 8618 7366 8910 9042 9170) (7132 7326 7510 7678 7838 6584 8124) (6154 6364 6558 8138 6904 7060 7206) (6772 6996 7206 5996 7572 7736 7890) (6386 6648 6890 7106 7304 5388 7656) (6984 7226 7450 7652 7840 8012 6074) (8550 6066 6348 6600 6826 7030 7220) (6576 6862 7122 7356 7568 7760 7938) (5702 6056 6364 6636 6880 7098 7296) (5116 5574 5956 6282 7266 6816 7042) (4752 5292 7126 6088 6396 6666 6908) (4310 4966 5470 5876 7616 6510 6768) (3740 4582 5180 5644 6022 6342 6620))) :lonset (quote (0 1000 2000 3000 4000 5000 6000 7000 8000 9000 10000 11000 12000 13000 14000 15000 16000 17000)) :ldur (quote ((1000 1000 1000 1000 1000 1000 1000) (1000 1000 1000 1000 1000 1000 1000) (1000 1000 1000 1000 1000 1000 1000) (1000 1000 1000 1000 1000 1000 1000) (1000 1000 1000 1000 1000 1000 1000) (1000 1000 1000 1000 1000 1000 1000) (1000 1000 1000 1000 1000 1000 1000) (1000 1000 1000 1000 1000 1000 1000) (1000 1000 1000 1000 1000 1000 1000) (1000 1000 1000 1000 1000 1000 1000) (1000 1000 1000 1000 1000 1000 1000) (1000 1000 1000 1000 1000 1000 1000) (1000 1000 1000 1000 1000 1000 1000) (1000 1000 1000 1000 1000 1000 1000) (1000 1000 1000 1000 1000 1000 1000) (1000 1000 1000 1000 1000 1000 1000) (1000 1000 1000 1000 1000 1000 1000))) :lvel (quote ((100 100 100 100 100 100 100) (100 100 100 100 100 100 100) (100 100 100 100 100 100 100) (100 100 100 100 100 100 100) (100 100 100 100 100 100 100) (100 100 100 100 100 100 100) (100 100 100 100 100 100 100) (100 100 100 100 100 100 100) (100 100 100 100 100 100 100) (100 100 100 100 100 100 100) (100 100 100 100 100 100 100) (100 100 100 100 100 100 100) (100 100 100 100 100 100 100) (100 100 100 100 100 100 100) (100 100 100 100 100 100 100) (100 100 100 100 100 100 100) (100 100 100 100 100 100 100))) :loffset (quote ((0 0 0 0 0 0 0) (0 0 0 0 0 0 0) (0 0 0 0 0 0 0) (0 0 0 0 0 0 0) (0 0 0 0 0 0 0) (0 0 0 0 0 0 0) (0 0 0 0 0 0 0) (0 0 0 0 0 0 0) (0 0 0 0 0 0 0) (0 0 0 0 0 0 0) (0 0 0 0 0 0 0) (0 0 0 0 0 0 0) (0 0 0 0 0 0 0) (0 0 0 0 0 0 0) (0 0 0 0 0 0 0) (0 0 0 0 0 0 0) (0 0 0 0 0 0 0))) :lchan (quote ((1 1 1 1 1 1 1) (1 1 1 1 1 1 1) (1 1 1 1 1 1 1) (1 1 1 1 1 1 1) (1 1 1 1 1 1 1) (1 1 1 1 1 1 1) (1 1 1 1 1 1 1) (1 1 1 1 1 1 1) (1 1 1 1 1 1 1) (1 1 1 1 1 1 1) (1 1 1 1 1 1 1) (1 1 1 1 1 1 1) (1 1 1 1 1 1 1) (1 1 1 1 1 1 1) (1 1 1 1 1 1 1) (1 1 1 1 1 1 1) (1 1 1 1 1 1 1))) :legato 0)))) (load-port-info newobj (quote ((0 0 0 0 0 0 0) (0 0 0 0 0 0 0) (0 0 0 0 0 0 0) (0 0 0 0 0 0 0) (0 0 0 0 0 0 0) (0 0 0 0 0 0 0) (0 0 0 0 0 0 0) (0 0 0 0 0 0 0) (0 0 0 0 0 0 0) (0 0 0 0 0 0 0) (0 0 0 0 0 0 0) (0 0 0 0 0 0 0) (0 0 0 0 0 0 0) (0 0 0 0 0 0 0) (0 0 0 0 0 0 0) (0 0 0 0 0 0 0) (0 0 0 0 0 0 0)))) (init-mus-color newobj (quote nil)) (set-extra-pairs newobj (quote nil)) (set-patch-pairs newobj (quote ((nil (om-load-patch-abs1 "patch" (quote nil) (quote nil) 7.01 nil "" (om-make-point 200 200) (om-make-point 400 500))) ((2) (om-load-patch-abs1 "patch" (quote nil) (quote nil) 7.01 nil "" (om-make-point 200 200) (om-make-point 400 500)))))) (set-name newobj nil) (set-tonalite newobj nil) newobj) "x" nil (pairlis (quote (scale show-stems cursor-mode obj-mode score-mode winpos winsize mode grillestep notechancolor? zoom player inport outport deltapict cmnpref staff fontsize approx)) (list nil (quote t) (quote :normal) 1 0 (om-make-point 400 44) (om-make-point 1400 533) 0 1000 nil 1 (quote :midi-player) nil nil (om-make-point 0 0) (let ((newobj (make-instance (quote edition-values)))) (setf (paper-size newobj) (om-make-point 600 800)) (setf (top-margin newobj) 2) (setf (left-margin newobj) 1) (setf (right-margin newobj) 1) (setf (bottom-margin newobj) 1) (setf (orientation newobj) nil) (setf (scale newobj) nil) (setf (system-space newobj) (quote (1))) (setf (system-color newobj) (quote nil)) (setf (line-space newobj) 1) (setf (title newobj) nil) (setf (show-title? newobj) nil) (setf (show-page? newobj) nil) (setf (sheet-id newobj) nil) (setf (page-mode newobj) nil) newobj) (quote ggff) 24 4)) t nil nil nil))) (when (fboundp (quote set-active)) (set-active box nil)) box))) (quote nil) 7.01 nil "" (om-make-point 0 44) (om-make-point 1800 1035)) (quote nil) (om-make-point 556 523) nil nil nil "making families"))) (when (fboundp (quote set-active)) (set-active box nil)) box) (let ((box (om-load-editor-box1 "CHORD-SEQ 3" (quote chord-seq) (quote ((om-load-inputfun (quote input-funbox) "object" "self" nil) (om-load-inputfun (quote input-funbox) "pitches (mc): list or list of lists" "lmidic" (list 6000)) (om-load-inputfun (quote input-funbox) "onsets (ms): list" "lonset" (list 0 1000)) (om-load-inputfun (quote input-funbox) "durations (ms): list or list of lists" "ldur" (list 1000)) (om-load-inputfun (quote input-funbox) "velocities (0-127): list or list of lists" "lvel" (list 100)) (om-load-inputfun (quote input-funbox) "offsets (ms): list or list of lists" "loffset" (list 0)) (om-load-inputfun (quote input-funbox) "MIDI channels (1-16): list or list of lists" "lchan" (list 1)) (om-load-inputfun (quote input-funbox) "relative chords duration (0-100)" "legato" 0))) (om-make-point 742 154) (om-make-point 862 247) (let ((newobj (when (find-class (quote chord-seq) nil) (make-instance (quote chord-seq) :lmidic (quote ((8996 9104 9208 9304 9398 9486 9572) (8322 8452 8576 8692 8804 8908 9010) (8766 8906 9040 9164 7886 9398 9506) (7664 7824 7978 7418 8254 8380 8502) (8284 8454 8618 7366 8910 9042 9170) (7132 7326 7510 7678 7838 6584 8124) (6154 6364 6558 8138 6904 7060 7206) (6772 6996 7206 5996 7572 7736 7890) (6386 6648 6890 7106 7304 5388 7656) (6984 7226 7450 7652 7840 8012 6074) (8550 6066 6348 6600 6826 7030 7220) (6576 6862 7122 7356 7568 7760 7938) (5702 6056 6364 6636 6880 7098 7296) (5116 5574 5956 6282 7266 6816 7042) (4752 5292 7126 6088 6396 6666 6908) (4310 4966 5470 5876 7616 6510 6768) (3740 4582 5180 5644 6022 6342 6620))) :lonset (quote (0 1000 2000 3000 4000 5000 6000 7000 8000 9000 10000 11000 12000 13000 14000 15000 16000 17000)) :ldur (quote ((1000 1000 1000 1000 1000 1000 1000) (1000 1000 1000 1000 1000 1000 1000) (1000 1000 1000 1000 1000 1000 1000) (1000 1000 1000 1000 1000 1000 1000) (1000 1000 1000 1000 1000 1000 1000) (1000 1000 1000 1000 1000 1000 1000) (1000 1000 1000 1000 1000 1000 1000) (1000 1000 1000 1000 1000 1000 1000) (1000 1000 1000 1000 1000 1000 1000) (1000 1000 1000 1000 1000 1000 1000) (1000 1000 1000 1000 1000 1000 1000) (1000 1000 1000 1000 1000 1000 1000) (1000 1000 1000 1000 1000 1000 1000) (1000 1000 1000 1000 1000 1000 1000) (1000 1000 1000 1000 1000 1000 1000) (1000 1000 1000 1000 1000 1000 1000) (1000 1000 1000 1000 1000 1000 1000))) :lvel (quote ((100 100 100 100 100 100 100) (100 100 100 100 100 100 100) (100 100 100 100 100 100 100) (100 100 100 100 100 100 100) (100 100 100 100 100 100 100) (100 100 100 100 100 100 100) (100 100 100 100 100 100 100) (100 100 100 100 100 100 100) (100 100 100 100 100 100 100) (100 100 100 100 100 100 100) (100 100 100 100 100 100 100) (100 100 100 100 100 100 100) (100 100 100 100 100 100 100) (100 100 100 100 100 100 100) (100 100 100 100 100 100 100) (100 100 100 100 100 100 100) (100 100 100 100 100 100 100))) :loffset (quote ((0 0 0 0 0 0 0) (0 0 0 0 0 0 0) (0 0 0 0 0 0 0) (0 0 0 0 0 0 0) (0 0 0 0 0 0 0) (0 0 0 0 0 0 0) (0 0 0 0 0 0 0) (0 0 0 0 0 0 0) (0 0 0 0 0 0 0) (0 0 0 0 0 0 0) (0 0 0 0 0 0 0) (0 0 0 0 0 0 0) (0 0 0 0 0 0 0) (0 0 0 0 0 0 0) (0 0 0 0 0 0 0) (0 0 0 0 0 0 0) (0 0 0 0 0 0 0))) :lchan (quote ((1 1 1 1 1 1 1) (1 1 1 1 1 1 1) (1 1 1 1 1 1 1) (1 1 1 1 1 1 1) (1 1 1 1 1 1 1) (1 1 1 1 1 1 1) (1 1 1 1 1 1 1) (1 1 1 1 1 1 1) (1 1 1 1 1 1 1) (1 1 1 1 1 1 1) (1 1 1 1 1 1 1) (1 1 1 1 1 1 1) (1 1 1 1 1 1 1) (1 1 1 1 1 1 1) (1 1 1 1 1 1 1) (1 1 1 1 1 1 1) (1 1 1 1 1 1 1))) :legato 0)))) (load-port-info newobj (quote ((0 0 0 0 0 0 0) (0 0 0 0 0 0 0) (0 0 0 0 0 0 0) (0 0 0 0 0 0 0) (0 0 0 0 0 0 0) (0 0 0 0 0 0 0) (0 0 0 0 0 0 0) (0 0 0 0 0 0 0) (0 0 0 0 0 0 0) (0 0 0 0 0 0 0) (0 0 0 0 0 0 0) (0 0 0 0 0 0 0) (0 0 0 0 0 0 0) (0 0 0 0 0 0 0) (0 0 0 0 0 0 0) (0 0 0 0 0 0 0) (0 0 0 0 0 0 0)))) (init-mus-color newobj (quote nil)) (set-extra-pairs newobj (quote nil)) (set-patch-pairs newobj (quote ((nil (om-load-patch-abs1 "patch" (quote nil) (quote nil) 7.01 nil "" (om-make-point 200 200) (om-make-point 400 500))) ((2) (om-load-patch-abs1 "patch" (quote nil) (quote nil) 7.01 nil "" (om-make-point 200 200) (om-make-point 400 500)))))) (set-name newobj nil) (set-tonalite newobj nil) newobj) "x" nil (pairlis (quote (scale show-stems cursor-mode obj-mode score-mode winpos winsize mode grillestep notechancolor? zoom player inport outport deltapict cmnpref staff fontsize approx)) (list nil (quote t) (quote :normal) 0 0 (om-make-point 400 44) (om-make-point 1400 533) 0 1000 nil 1 (quote :midi-player) nil nil (om-make-point 0 0) (let ((newobj (make-instance (quote edition-values)))) (setf (paper-size newobj) (om-make-point 600 800)) (setf (top-margin newobj) 2) (setf (left-margin newobj) 1) (setf (right-margin newobj) 1) (setf (bottom-margin newobj) 1) (setf (orientation newobj) nil) (setf (scale newobj) nil) (setf (system-space newobj) (quote (1))) (setf (system-color newobj) (quote nil)) (setf (line-space newobj) 1) (setf (title newobj) nil) (setf (show-title? newobj) nil) (setf (show-page? newobj) nil) (setf (sheet-id newobj) nil) (setf (page-mode newobj) nil) newobj) (quote ggff) 60 4)) t nil nil nil))) (when (fboundp (quote set-active)) (set-active box nil)) box) (let ((box (om-load-boxcall (quote lispfun) "REVERSE" (quote reverse) (quote ((om-load-inputfun (quote input-funbox) "SEQUENCE" "SEQUENCE" nil))) (om-make-point 64 708) nil nil nil nil 1))) (when (fboundp (quote set-active)) (set-active box nil)) box) (let ((box (om-load-editor-box1 "CHORD-SEQ 2" (quote chord-seq) (quote ((om-load-inputfun (quote input-funbox) "object" "self" nil) (om-load-inputfun (quote input-funbox) "pitches (mc): list or list of lists" "lmidic" (list 6000)) (om-load-inputfun (quote input-funbox) "onsets (ms): list" "lonset" (list 0 1000)) (om-load-inputfun (quote input-funbox) "durations (ms): list or list of lists" "ldur" (list 1000)) (om-load-inputfun (quote input-funbox) "velocities (0-127): list or list of lists" "lvel" (list 100)) (om-load-inputfun (quote input-funbox) "offsets (ms): list or list of lists" "loffset" (list 0)) (om-load-inputfun (quote input-funbox) "MIDI channels (1-16): list or list of lists" "lchan" (list 1)) (om-load-inputfun (quote input-funbox) "relative chords duration (0-100)" "legato" 0))) (om-make-point 128 713) (om-make-point 173 97) (let ((newobj (when (find-class (quote chord-seq) nil) (make-instance (quote chord-seq) :lmidic (quote ((8996 9104 9208 9304 9398 9486 9572) (8322 8452 8576 8692 8804 8908 9010) (8766 8906 9040 9164 9286 9398 9506) (7664 7824 7978 8118 8254 8380 8502) (8284 8454 8618 8766 8910 9042 9170) (7132 7326 7510 7678 7838 7984 8124) (6154 6364 6558 6738 6904 7060 7206) (6772 6996 7206 7396 7572 7736 7890) (6386 6648 6890 7106 7304 7488 7656) (6984 7226 7450 7652 7840 8012 8174) (5750 6066 6348 6600 6826 7030 7220) (6576 6862 7122 7356 7568 7760 7938) (5702 6056 6364 6636 6880 7098 7296) (5116 5574 5956 6282 6566 6816 7042) (4752 5292 5726 6088 6396 6666 6908) (4310 4966 5470 5876 6216 6510 6768) (3740 4582 5180 5644 6022 6342 6620))) :lonset (quote (0 1000 2000 3000 4000 5000 6000 7000 8000 9000 10000 11000 12000 13000 14000 15000 16000 17000)) :ldur (quote ((1000 1000 1000 1000 1000 1000 1000) (1000 1000 1000 1000 1000 1000 1000) (1000 1000 1000 1000 1000 1000 1000) (1000 1000 1000 1000 1000 1000 1000) (1000 1000 1000 1000 1000 1000 1000) (1000 1000 1000 1000 1000 1000 1000) (1000 1000 1000 1000 1000 1000 1000) (1000 1000 1000 1000 1000 1000 1000) (1000 1000 1000 1000 1000 1000 1000) (1000 1000 1000 1000 1000 1000 1000) (1000 1000 1000 1000 1000 1000 1000) (1000 1000 1000 1000 1000 1000 1000) (1000 1000 1000 1000 1000 1000 1000) (1000 1000 1000 1000 1000 1000 1000) (1000 1000 1000 1000 1000 1000 1000) (1000 1000 1000 1000 1000 1000 1000) (1000 1000 1000 1000 1000 1000 1000))) :lvel (quote ((100 100 100 100 100 100 100) (100 100 100 100 100 100 100) (100 100 100 100 100 100 100) (100 100 100 100 100 100 100) (100 100 100 100 100 100 100) (100 100 100 100 100 100 100) (100 100 100 100 100 100 100) (100 100 100 100 100 100 100) (100 100 100 100 100 100 100) (100 100 100 100 100 100 100) (100 100 100 100 100 100 100) (100 100 100 100 100 100 100) (100 100 100 100 100 100 100) (100 100 100 100 100 100 100) (100 100 100 100 100 100 100) (100 100 100 100 100 100 100) (100 100 100 100 100 100 100))) :loffset (quote ((0 0 0 0 0 0 0) (0 0 0 0 0 0 0) (0 0 0 0 0 0 0) (0 0 0 0 0 0 0) (0 0 0 0 0 0 0) (0 0 0 0 0 0 0) (0 0 0 0 0 0 0) (0 0 0 0 0 0 0) (0 0 0 0 0 0 0) (0 0 0 0 0 0 0) (0 0 0 0 0 0 0) (0 0 0 0 0 0 0) (0 0 0 0 0 0 0) (0 0 0 0 0 0 0) (0 0 0 0 0 0 0) (0 0 0 0 0 0 0) (0 0 0 0 0 0 0))) :lchan (quote ((1 1 1 1 1 1 1) (1 1 1 1 1 1 1) (1 1 1 1 1 1 1) (1 1 1 1 1 1 1) (1 1 1 1 1 1 1) (1 1 1 1 1 1 1) (1 1 1 1 1 1 1) (1 1 1 1 1 1 1) (1 1 1 1 1 1 1) (1 1 1 1 1 1 1) (1 1 1 1 1 1 1) (1 1 1 1 1 1 1) (1 1 1 1 1 1 1) (1 1 1 1 1 1 1) (1 1 1 1 1 1 1) (1 1 1 1 1 1 1) (1 1 1 1 1 1 1))) :legato 0)))) (load-port-info newobj (quote ((0 0 0 0 0 0 0) (0 0 0 0 0 0 0) (0 0 0 0 0 0 0) (0 0 0 0 0 0 0) (0 0 0 0 0 0 0) (0 0 0 0 0 0 0) (0 0 0 0 0 0 0) (0 0 0 0 0 0 0) (0 0 0 0 0 0 0) (0 0 0 0 0 0 0) (0 0 0 0 0 0 0) (0 0 0 0 0 0 0) (0 0 0 0 0 0 0) (0 0 0 0 0 0 0) (0 0 0 0 0 0 0) (0 0 0 0 0 0 0) (0 0 0 0 0 0 0)))) (init-mus-color newobj (quote nil)) (set-extra-pairs newobj (quote nil)) (set-patch-pairs newobj (quote ((nil (om-load-patch-abs1 "patch" (quote nil) (quote nil) 7.01 nil "" (om-make-point 200 200) (om-make-point 400 500))) ((2) (om-load-patch-abs1 "patch" (quote nil) (quote nil) 7.01 nil "" (om-make-point 200 200) (om-make-point 400 500)))))) (set-name newobj nil) (set-tonalite newobj nil) newobj) "x" nil (pairlis (quote (scale show-stems cursor-mode obj-mode score-mode winpos winsize mode grillestep notechancolor? zoom player inport outport deltapict cmnpref staff fontsize approx)) (list nil (quote t) (quote :normal) 1 0 (om-make-point 400 44) (om-make-point 1400 533) 0 1000 nil 1 (quote :midi-player) nil nil (om-make-point 0 0) (let ((newobj (make-instance (quote edition-values)))) (setf (paper-size newobj) (om-make-point 600 800)) (setf (top-margin newobj) 2) (setf (left-margin newobj) 1) (setf (right-margin newobj) 1) (setf (bottom-margin newobj) 1) (setf (orientation newobj) nil) (setf (scale newobj) nil) (setf (system-space newobj) (quote (1))) (setf (system-color newobj) (quote nil)) (setf (line-space newobj) 1) (setf (title newobj) nil) (setf (show-title? newobj) nil) (setf (show-page? newobj) nil) (setf (sheet-id newobj) nil) (setf (page-mode newobj) nil) newobj) (quote ggff) 24 4)) t nil nil nil))) (when (fboundp (quote set-active)) (set-active box nil)) box) (let ((box (om-load-boxcall (quote abstraction) "sort by roughness least to greatest" (om-load-patch-abs1 "sort by roughness least to greatest" (quote ((let ((box (om-load-boxwithed1 (quote box-with-win) "get roughness" (quote omloop) (quote ((om-load-inputfun (quote input-funbox) "" "input0" nil))) (om-make-point 425 344) nil nil nil (list (let ((box (om-load-boxcall (quote genfun) "collect" (quote listing) (quote ((om-load-inputfun (quote input-funbox) "anything" "DATA" nil))) (om-make-point 322 206) nil nil nil nil 3))) (when (fboundp (quote set-active)) (set-active box nil)) box) (let ((box (om-load-boxcall (quote lispfun) "NTH" (quote nth) (quote ((om-load-inputfun (quote input-funbox) "ORIG-N" "ORIG-N" 0) (om-load-inputfun (quote input-funbox) "ORIG-LIST" "ORIG-LIST" nil))) (om-make-point 229 169) nil nil nil nil 1))) (when (fboundp (quote set-active)) (set-active box nil)) box) (let ((box (om-load-boxcall (quote genfun) "inlist" (quote listloop) (quote ((om-load-inputfun (quote input-funbox) "list to iterate" "LIST" nil))) (om-make-point 276 71) nil nil nil nil 1))) (when (fboundp (quote set-active)) (set-active box nil)) box) (let ((box (om-load-boxin "input0" 0 (om-make-point 5 40) "" nil nil nil))) (when (fboundp (quote set-active)) (set-active box nil)) box) (let ((box (om-load-seqbox "finally" (quote finaldo) (quote ((om-load-inputfun (quote input-funbox) "value to return" "VAL" nil))) (om-make-point 321 293) nil nil nil 0))) (when (fboundp (quote set-active)) (set-active box nil)) box) (let ((box (om-load-seqbox "eachTime" (quote loopdo) (quote ((om-load-inputfun (quote input-funbox) "operations to do" "OP" nil))) (om-make-point 185 308) nil nil nil 0))) (when (fboundp (quote set-active)) (set-active box nil)) box)) (quote ((1 0 0 0 nil 0) (2 0 1 1 nil 0) (3 0 2 0 nil 0) (0 1 4 0 nil 0) (0 0 5 0 nil 0))) 1 "get roughness" nil))) (when (fboundp (quote set-active)) (set-active box nil)) box) (let ((box (om-load-boxout "output 2" 1 (om-make-point 438 452) (quote ((om-load-inputfun (quote input-funbox) "" "out" nil))) nil nil))) (when (fboundp (quote set-active)) (set-active box nil)) box) (let ((box (om-load-boxwithed1 (quote box-with-win) "get roughness" (quote omloop) (quote ((om-load-inputfun (quote input-funbox) "" "input0" nil))) (om-make-point 73 206) nil nil nil (list (let ((box (om-load-boxcall (quote genfun) "collect" (quote listing) (quote ((om-load-inputfun (quote input-funbox) "anything" "DATA" nil))) (om-make-point 275 123) nil nil nil nil 3))) (when (fboundp (quote set-active)) (set-active box nil)) box) (let ((box (om-load-boxcall (quote genfun) "ROUGHNESS" (quote roughness) (quote ((om-load-inputfun (quote input-funbox) "chord obj" "CHORD" (list 6000 6700)) (om-load-inputfun (quote input-funbox) "nbharm" "NBHARM" 2) (om-load-inputfun (quote input-funbox) "dec" "DEC" 2))) (om-make-point 158 162) nil nil nil nil 1))) (when (fboundp (quote set-active)) (set-active box nil)) box) (let ((box (om-load-boxcall (quote genfun) "inlist" (quote listloop) (quote ((om-load-inputfun (quote input-funbox) "list to iterate" "LIST" nil))) (om-make-point 46 119) nil nil nil nil 1))) (when (fboundp (quote set-active)) (set-active box nil)) box) (let ((box (om-load-boxin "input0" 0 (om-make-point 5 40) "" nil nil nil))) (when (fboundp (quote set-active)) (set-active box nil)) box) (let ((box (om-load-seqbox "finally" (quote finaldo) (quote ((om-load-inputfun (quote input-funbox) "value to return" "VAL" nil))) (om-make-point 300 250) nil nil nil 0))) (when (fboundp (quote set-active)) (set-active box nil)) box) (let ((box (om-load-seqbox "eachTime" (quote loopdo) (quote ((om-load-inputfun (quote input-funbox) "operations to do" "OP" nil))) (om-make-point 200 250) nil nil nil 0))) (when (fboundp (quote set-active)) (set-active box nil)) box)) (quote ((1 0 0 0 nil 0) (2 0 1 0 nil 0) (3 0 2 0 nil 0) (0 1 4 0 nil 0) (0 0 5 0 nil 0))) 1 "get roughness" nil))) (when (fboundp (quote set-active)) (set-active box nil)) box) (let ((box (om-load-boxwithed1 (quote box-with-win) "get chord" (quote omloop) (quote ((om-load-inputfun (quote input-funbox) "" "input0" nil))) (om-make-point 157 338) nil nil nil (list (let ((box (om-load-boxcall (quote genfun) "collect" (quote listing) (quote ((om-load-inputfun (quote input-funbox) "anything" "DATA" nil))) (om-make-point 322 206) nil nil nil nil 3))) (when (fboundp (quote set-active)) (set-active box nil)) box) (let ((box (om-load-boxcall (quote lispfun) "NTH" (quote nth) (quote ((om-load-inputfun (quote input-funbox) "ORIG-N" "ORIG-N" 1) (om-load-inputfun (quote input-funbox) "ORIG-LIST" "ORIG-LIST" nil))) (om-make-point 229 169) nil nil nil nil 1))) (when (fboundp (quote set-active)) (set-active box nil)) box) (let ((box (om-load-boxcall (quote genfun) "inlist" (quote listloop) (quote ((om-load-inputfun (quote input-funbox) "list to iterate" "LIST" nil))) (om-make-point 276 71) nil nil nil nil 1))) (when (fboundp (quote set-active)) (set-active box nil)) box) (let ((box (om-load-boxin "input0" 0 (om-make-point 5 40) "" nil nil nil))) (when (fboundp (quote set-active)) (set-active box nil)) box) (let ((box (om-load-seqbox "finally" (quote finaldo) (quote ((om-load-inputfun (quote input-funbox) "value to return" "VAL" nil))) (om-make-point 321 293) nil nil nil 0))) (when (fboundp (quote set-active)) (set-active box nil)) box) (let ((box (om-load-seqbox "eachTime" (quote loopdo) (quote ((om-load-inputfun (quote input-funbox) "operations to do" "OP" nil))) (om-make-point 185 308) nil nil nil 0))) (when (fboundp (quote set-active)) (set-active box nil)) box)) (quote ((1 0 0 0 nil 0) (2 0 1 1 nil 0) (3 0 2 0 nil 0) (0 1 4 0 nil 0) (0 0 5 0 nil 0))) 1 "get chord" nil))) (when (fboundp (quote set-active)) (set-active box nil)) box) (let ((box (om-load-boxcall (quote bastype) "list 2" (quote list) (quote nil) (om-make-point 416 212) (om-make-point 29 30) (quote <) "<" nil))) (when (fboundp (quote set-active)) (set-active box nil)) box) (let ((box (om-load-boxcall (quote bastype) "list" (quote list) (quote nil) (om-make-point 486 218) (om-make-point 42 30) (quote first) "first" nil))) (when (fboundp (quote set-active)) (set-active box nil)) box) (let ((box (om-load-boxcall (quote genfun) "SORT-LIST" (quote sort-list) (quote ((om-load-inputfun (quote input-funbox) "a list" "LST" nil) (om-load-inputkeyword (quote input-keyword) "test function" "test" (quote :test) (quote (quote <)) nil) (om-load-inputkeyword (quote input-keyword) "test key" "key" (quote :key) nil nil))) (om-make-point 293 291) nil nil nil nil 1))) (when (fboundp (quote set-active)) (set-active box nil)) box) (let ((box (om-load-boxwithed1 (quote box-with-win) "v fund + chord seq to hash" (quote omloop) (quote ((om-load-inputfun (quote input-funbox) "" "input0" nil) (om-load-inputfun (quote input-funbox) "" "input1" nil))) (om-make-point 172 183) nil nil nil (list (let ((box (om-load-boxcall (quote genfun) "collect" (quote listing) (quote ((om-load-inputfun (quote input-funbox) "anything" "DATA" nil))) (om-make-point 243 306) nil nil nil nil 3))) (when (fboundp (quote set-active)) (set-active box nil)) box) (let ((box (om-load-boxcall (quote lispfun) "LIST" (quote list) (quote ((om-load-inputfun (quote input-funbox) "add-input" "add-input" nil) (om-load-inputfun (quote input-funbox) "add-input" "add-input" nil))) (om-make-point 248 247) nil nil nil nil 1))) (when (fboundp (quote set-active)) (set-active box nil)) box) (let ((box (om-load-boxcall (quote genfun) "inlist 2" (quote listloop) (quote ((om-load-inputfun (quote input-funbox) "list to iterate" "LIST" nil))) (om-make-point 275 151) nil nil nil nil 1))) (when (fboundp (quote set-active)) (set-active box nil)) box) (let ((box (om-load-boxcall (quote genfun) "inlist" (quote listloop) (quote ((om-load-inputfun (quote input-funbox) "list to iterate" "LIST" nil))) (om-make-point 40 153) nil nil nil nil 1))) (when (fboundp (quote set-active)) (set-active box nil)) box) (let ((box (om-load-boxin "input1" 1 (om-make-point 212 40) "" nil nil nil))) (when (fboundp (quote set-active)) (set-active box nil)) box) (let ((box (om-load-boxin "input0" 0 (om-make-point 5 40) "" nil nil nil))) (when (fboundp (quote set-active)) (set-active box nil)) box) (let ((box (om-load-seqbox "finally" (quote finaldo) (quote ((om-load-inputfun (quote input-funbox) "value to return" "VAL" nil))) (om-make-point 486 490) nil nil nil 0))) (when (fboundp (quote set-active)) (set-active box nil)) box) (let ((box (om-load-seqbox "eachTime" (quote loopdo) (quote ((om-load-inputfun (quote input-funbox) "operations to do" "OP" nil))) (om-make-point 193 494) nil nil nil 0))) (when (fboundp (quote set-active)) (set-active box nil)) box)) (quote ((1 0 0 0 nil 0) (3 0 1 0 nil 0) (2 0 1 1 nil 0) (4 0 2 0 nil 0) (5 0 3 0 nil 0) (0 1 6 0 nil 0) (0 0 7 0 nil 0))) 1 "v fund + chord seq to hash" nil))) (when (fboundp (quote set-active)) (set-active box nil)) box) (let ((box (om-load-boxcall (quote genfun) "VIRTUAL-FUND" (quote virtual-fund) (quote ((om-load-inputfun (quote input-funbox) "pitches" "CHORD" (list 6000)) (om-load-inputfun (quote input-funbox) "approx" "CENTS" 50) (om-load-inputfunmenu1 (quote input-funmenu) "unit" "UNIT" (quote midic) (list (list "Midics" (quote (quote midic))) (list "Freqs" (quote (quote freq))))))) (om-make-point 157 62) nil nil nil nil 1))) (when (fboundp (quote set-active)) (set-active box nil)) box) (let ((box (om-load-boxin "input" 0 (om-make-point 5 45) "" nil nil nil))) (when (fboundp (quote set-active)) (set-active box nil)) box) (let ((box (om-load-boxout "output" 0 (om-make-point 89 375) (quote ((om-load-inputfun (quote input-funbox) "" "out" nil))) nil nil))) (when (fboundp (quote set-active)) (set-active box nil)) box))) (quote ((6 0 0 0 nil 0) (0 0 1 0 nil 0) (9 0 2 0 nil 0) (6 0 3 0 nil 0) (7 0 6 0 nil 0) (4 0 6 1 nil 0) (5 0 6 2 nil 0) (2 0 7 0 nil 0) (9 0 7 1 nil 0) (3 0 10 0 nil 0))) 7.01 nil "" (om-make-point 200 200) (om-make-point 500 400)) (quote ((om-load-inputfun (quote input-funbox) "" "input" nil))) (om-make-point 56 628) nil (list (list (list 3740 4582 5180 5644 6022 6342 6620) (list 4310 4966 5470 5876 6216 6510 6768) (list 4752 5292 5726 6088 6396 6666 6908) (list 5116 5574 5956 6282 6566 6816 7042) (list 5702 6056 6364 6636 6880 7098 7296) (list 6176 6462 6722 6956 7168 7360 7538) (list 5950 6266 6548 6800 7026 7230 7420) (list 6584 6826 7050 7252 7440 7612 7774) (list 6386 6648 6890 7106 7304 7488 7656) (list 6772 6996 7206 7396 7572 7736 7890) (list 6954 7164 7358 7538 7704 7860 8006) (list 7132 7326 7510 7678 7838 7984 8124) (list 7484 7654 7818 7966 8110 8242 8370) (list 7664 7824 7978 8118 8254 8380 8502) (list 8066 8206 8340 8464 8586 8698 8806) (list 8322 8452 8576 8692 8804 8908 9010) (list 8996 9104 9208 9304 9398 9486 9572)) (list 0.0279872 0.03045094 0.035049346 0.035840158 0.04082705 0.04744279 0.04885382 0.05013611 0.05446831 0.05723444 0.058410298 0.061051164 0.068422146 0.072296396 0.081110284 0.085677 0.09490935)) nil "sort by roughness least to greatest"))) (when (fboundp (quote set-active)) (set-active box nil)) box) (let ((box (om-load-editor-box1 "CHORD 4" (quote chord) (quote ((om-load-inputfun (quote input-funbox) "object" "self" nil) (om-load-inputfun (quote input-funbox) "pitches (list of midicents)" "lmidic" (list 6000)) (om-load-inputfun (quote input-funbox) "velocities (list of values 0-127)" "lvel" (list 100)) (om-load-inputfun (quote input-funbox) "offsets (list of values in ms)" "loffset" (list 0)) (om-load-inputfun (quote input-funbox) "durations (list of values in ms)" "ldur" (list 1000)) (om-load-inputfun (quote input-funbox) "MIDI channels (list of values 0-16)" "lchan" (list 1)))) (om-make-point 630 177) (om-make-point 60 90) (let ((thechord (make-instance (quote chord) :lmidic (quote (3740 4582 5180 5644 6022 6342 6620 6864)) :ldur (quote (1000 1000 1000 1000 1000 1000 1000 1000)) :lvel (quote (100 100 100 100 100 100 100 100)) :loffset (quote (0 0 0 0 0 0 0 0)) :lchan (quote (1 1 1 1 1 1 1 1))))) (load-port-info thechord (quote (0 0 0 0 0 0 0 0))) (init-mus-color thechord (quote nil)) (set-extra-pairs thechord (quote nil)) (set-tonalite thechord nil) thechord) nil nil (pairlis (quote (scale show-stems cursor-mode obj-mode score-mode winpos winsize mode grillestep notechancolor? zoom player inport outport deltapict cmnpref staff fontsize approx)) (list nil (quote t) (quote :normal) 0 0 (om-make-point 400 44) (om-make-point 771 400) 0 1000 nil 1 (quote :midi-player) nil nil (om-make-point 0 0) (let ((newobj (make-instance (quote edition-values)))) (setf (paper-size newobj) (om-make-point 600 800)) (setf (top-margin newobj) 2) (setf (left-margin newobj) 1) (setf (right-margin newobj) 1) (setf (bottom-margin newobj) 1) (setf (orientation newobj) nil) (setf (scale newobj) nil) (setf (system-space newobj) (quote (1))) (setf (system-color newobj) (quote nil)) (setf (line-space newobj) 1) (setf (title newobj) nil) (setf (show-title? newobj) nil) (setf (show-page? newobj) nil) (setf (sheet-id newobj) nil) (setf (page-mode newobj) nil) newobj) (quote gf) 24 4)) t nil nil nil))) (when (fboundp (quote set-active)) (set-active box nil)) box) (let ((box (om-load-boxcall (quote genfun) "FLAT 2" (quote flat) (quote ((om-load-inputfun (quote input-funbox) "a list" "LST" nil))) (om-make-point 616 76) nil nil nil nil 1))) (when (fboundp (quote set-active)) (set-active box nil)) box) (let ((box (om-load-boxcall (quote genfun) "SP-GEN 2" (quote sp-gen) (quote ((om-load-inputfun (quote input-funbox) "Fundamental" "FUND" 2300) (om-load-inputfun (quote input-funbox) "Dist" "DIST%" 20) (om-load-inputfun (quote input-funbox) "Numerator" "NUMER" 1) (om-load-inputfun (quote input-funbox) "Denominator" "DENOM" 1) (om-load-inputfun (quote input-funbox) "Begin" "BEGIN" 2) (om-load-inputfun (quote input-funbox) "End" "END" 9))) (om-make-point 534 59) nil nil nil nil 1))) (when (fboundp (quote set-active)) (set-active box nil)) box) (let ((box (om-load-editor-box1 "CHORD 3" (quote chord) (quote ((om-load-inputfun (quote input-funbox) "object" "self" nil) (om-load-inputfun (quote input-funbox) "pitches (list of midicents)" "lmidic" (list 6000)) (om-load-inputfun (quote input-funbox) "velocities (list of values 0-127)" "lvel" (list 100)) (om-load-inputfun (quote input-funbox) "offsets (list of values in ms)" "loffset" (list 0)) (om-load-inputfun (quote input-funbox) "durations (list of values in ms)" "ldur" (list 1000)) (om-load-inputfun (quote input-funbox) "MIDI channels (list of values 0-16)" "lchan" (list 1)))) (om-make-point 428 172) (om-make-point 60 90) (let ((thechord (make-instance (quote chord) :lmidic (quote (8996 9104 9208 9304 9398 9486 9572)) :ldur (quote (1000 1000 1000 1000 1000 1000 1000)) :lvel (quote (100 100 100 100 100 100 100)) :loffset (quote (0 0 0 0 0 0 0)) :lchan (quote (1 1 1 1 1 1 1))))) (load-port-info thechord (quote (0 0 0 0 0 0 0))) (init-mus-color thechord (quote nil)) (set-extra-pairs thechord (quote nil)) (set-tonalite thechord nil) thechord) nil nil (pairlis (quote (scale show-stems cursor-mode obj-mode score-mode winpos winsize mode grillestep notechancolor? zoom player inport outport deltapict cmnpref staff fontsize approx)) (list nil (quote t) (quote :normal) 0 0 (om-make-point 400 44) (om-make-point 771 400) 0 1000 nil 1 (quote :midi-player) nil nil (om-make-point 0 0) (let ((newobj (make-instance (quote edition-values)))) (setf (paper-size newobj) (om-make-point 600 800)) (setf (top-margin newobj) 2) (setf (left-margin newobj) 1) (setf (right-margin newobj) 1) (setf (bottom-margin newobj) 1) (setf (orientation newobj) nil) (setf (scale newobj) nil) (setf (system-space newobj) (quote (1))) (setf (system-color newobj) (quote nil)) (setf (line-space newobj) 1) (setf (title newobj) nil) (setf (show-title? newobj) nil) (setf (show-page? newobj) nil) (setf (sheet-id newobj) nil) (setf (page-mode newobj) nil) newobj) (quote gf) 24 4)) t nil nil nil))) (when (fboundp (quote set-active)) (set-active box nil)) box) (let ((box (om-load-boxcall (quote genfun) "FLAT" (quote flat) (quote ((om-load-inputfun (quote input-funbox) "a list" "LST" nil))) (om-make-point 414 71) nil nil nil nil 1))) (when (fboundp (quote set-active)) (set-active box nil)) box) (let ((box (om-load-boxcall (quote genfun) "SP-GEN" (quote sp-gen) (quote ((om-load-inputfun (quote input-funbox) "Fundamental" "FUND" 3600) (om-load-inputfun (quote input-funbox) "Dist" "DIST%" 10) (om-load-inputfun (quote input-funbox) "Numerator" "NUMER" 1) (om-load-inputfun (quote input-funbox) "Denominator" "DENOM" 1) (om-load-inputfun (quote input-funbox) "Begin" "BEGIN" 17) (om-load-inputfun (quote input-funbox) "End" "END" 23))) (om-make-point 332 54) nil nil nil nil 1))) (when (fboundp (quote set-active)) (set-active box nil)) box) (let ((box (om-load-editor-box1 "CHORD-SEQ" (quote chord-seq) (quote ((om-load-inputfun (quote input-funbox) "object" "self" nil) (om-load-inputfun (quote input-funbox) "pitches (mc): list or list of lists" "lmidic" (list 6000)) (om-load-inputfun (quote input-funbox) "onsets (ms): list" "lonset" (list 0 1000)) (om-load-inputfun (quote input-funbox) "durations (ms): list or list of lists" "ldur" (list 1000)) (om-load-inputfun (quote input-funbox) "velocities (0-127): list or list of lists" "lvel" (list 100)) (om-load-inputfun (quote input-funbox) "offsets (ms): list or list of lists" "loffset" (list 0)) (om-load-inputfun (quote input-funbox) "MIDI channels (1-16): list or list of lists" "lchan" (list 1)) (om-load-inputfun (quote input-funbox) "relative chords duration (0-100)" "legato" 0))) (om-make-point 85 367) (om-make-point 148 104) (let ((newobj (when (find-class (quote chord-seq) nil) (make-instance (quote chord-seq) :lmidic (quote ((8996 9104 9208 9304 9398 9486 9572) (8322 8452 8576 8692 8804 8908 9010) (8066 8206 8340 8464 8586 8698 8806) (7664 7824 7978 8118 8254 8380 8502) (7484 7654 7818 7966 8110 8242 8370) (7132 7326 7510 7678 7838 7984 8124) (6954 7164 7358 7538 7704 7860 8006) (6772 6996 7206 7396 7572 7736 7890) (6584 6826 7050 7252 7440 7612 7774) (6386 6648 6890 7106 7304 7488 7656) (6176 6462 6722 6956 7168 7360 7538) (5950 6266 6548 6800 7026 7230 7420) (5702 6056 6364 6636 6880 7098 7296) (5116 5574 5956 6282 6566 6816 7042) (4752 5292 5726 6088 6396 6666 6908) (4310 4966 5470 5876 6216 6510 6768) (3740 4582 5180 5644 6022 6342 6620))) :lonset (quote (0 1000 2000 4000 5000 7000 8000 9000 10000 11000 12000 13000 14000 16000 17000 18000 19000 20000)) :ldur (quote ((1000 1000 1000 1000 1000 1000 1000) (1000 1000 1000 1000 1000 1000 1000) (1000 1000 1000 1000 1000 1000 1000) (1000 1000 1000 1000 1000 1000 1000) (1000 1000 1000 1000 1000 1000 1000) (1000 1000 1000 1000 1000 1000 1000) (1000 1000 1000 1000 1000 1000 1000) (1000 1000 1000 1000 1000 1000 1000) (1000 1000 1000 1000 1000 1000 1000) (1000 1000 1000 1000 1000 1000 1000) (1000 1000 1000 1000 1000 1000 1000) (1000 1000 1000 1000 1000 1000 1000) (1000 1000 1000 1000 1000 1000 1000) (1000 1000 1000 1000 1000 1000 1000) (1000 1000 1000 1000 1000 1000 1000) (1000 1000 1000 1000 1000 1000 1000) (1000 1000 1000 1000 1000 1000 1000))) :lvel (quote ((100 100 100 100 100 100 100) (100 100 100 100 100 100 100) (100 100 100 100 100 100 100) (100 100 100 100 100 100 100) (100 100 100 100 100 100 100) (100 100 100 100 100 100 100) (100 100 100 100 100 100 100) (100 100 100 100 100 100 100) (100 100 100 100 100 100 100) (100 100 100 100 100 100 100) (100 100 100 100 100 100 100) (100 100 100 100 100 100 100) (100 100 100 100 100 100 100) (100 100 100 100 100 100 100) (100 100 100 100 100 100 100) (100 100 100 100 100 100 100) (100 100 100 100 100 100 100))) :loffset (quote ((0 0 0 0 0 0 0) (0 0 0 0 0 0 0) (0 0 0 0 0 0 0) (0 0 0 0 0 0 0) (0 0 0 0 0 0 0) (0 0 0 0 0 0 0) (0 0 0 0 0 0 0) (0 0 0 0 0 0 0) (0 0 0 0 0 0 0) (0 0 0 0 0 0 0) (0 0 0 0 0 0 0) (0 0 0 0 0 0 0) (0 0 0 0 0 0 0) (0 0 0 0 0 0 0) (0 0 0 0 0 0 0) (0 0 0 0 0 0 0) (0 0 0 0 0 0 0))) :lchan (quote ((1 1 1 1 1 1 1) (1 1 1 1 1 1 1) (1 1 1 1 1 1 1) (1 1 1 1 1 1 1) (1 1 1 1 1 1 1) (1 1 1 1 1 1 1) (1 1 1 1 1 1 1) (1 1 1 1 1 1 1) (1 1 1 1 1 1 1) (1 1 1 1 1 1 1) (1 1 1 1 1 1 1) (1 1 1 1 1 1 1) (1 1 1 1 1 1 1) (1 1 1 1 1 1 1) (1 1 1 1 1 1 1) (1 1 1 1 1 1 1) (1 1 1 1 1 1 1))) :legato 0)))) (load-port-info newobj (quote ((0 0 0 0 0 0 0) (0 0 0 0 0 0 0) (0 0 0 0 0 0 0) (0 0 0 0 0 0 0) (0 0 0 0 0 0 0) (0 0 0 0 0 0 0) (0 0 0 0 0 0 0) (0 0 0 0 0 0 0) (0 0 0 0 0 0 0) (0 0 0 0 0 0 0) (0 0 0 0 0 0 0) (0 0 0 0 0 0 0) (0 0 0 0 0 0 0) (0 0 0 0 0 0 0) (0 0 0 0 0 0 0) (0 0 0 0 0 0 0) (0 0 0 0 0 0 0)))) (init-mus-color newobj (quote nil)) (set-extra-pairs newobj (quote nil)) (set-patch-pairs newobj (quote ((nil (om-load-patch-abs1 "patch" (quote nil) (quote nil) 7.01 nil "" (om-make-point 200 200) (om-make-point 400 500)))))) (set-name newobj nil) (set-tonalite newobj nil) newobj) "x" nil (pairlis (quote (scale show-stems cursor-mode obj-mode score-mode winpos winsize mode grillestep notechancolor? zoom player inport outport deltapict cmnpref staff fontsize approx)) (list nil (quote t) (quote :normal) 1 0 (om-make-point 400 44) (om-make-point 1165 622) 0 1000 nil 1 (quote :midi-player) nil nil (om-make-point 0 0) (let ((newobj (make-instance (quote edition-values)))) (setf (paper-size newobj) (om-make-point 600 800)) (setf (top-margin newobj) 2) (setf (left-margin newobj) 1) (setf (right-margin newobj) 1) (setf (bottom-margin newobj) 1) (setf (orientation newobj) nil) (setf (scale newobj) nil) (setf (system-space newobj) (quote (1))) (setf (system-color newobj) (quote nil)) (setf (line-space newobj) 1) (setf (title newobj) nil) (setf (show-title? newobj) nil) (setf (show-page? newobj) nil) (setf (sheet-id newobj) nil) (setf (page-mode newobj) nil) newobj) (quote ggff) 24 4)) t nil nil nil))) (when (fboundp (quote set-active)) (set-active box nil)) box) (let ((box (om-load-boxcall (quote genfun) "F-INTERPOL" (quote f-interpol) (quote ((om-load-inputfun (quote input-funbox) "begin" "BEGIN" 4800) (om-load-inputfun (quote input-funbox) "end" "END" 6000) (om-load-inputfun (quote input-funbox) "steps" "STEPS" 20) (om-load-inputfun (quote input-funbox) "curve" "CURVE" 1.0))) (om-make-point 64 269) nil nil nil nil 1))) (when (fboundp (quote set-active)) (set-active box nil)) box) (let ((box (om-load-editor-box1 "CHORD 2" (quote chord) (quote ((om-load-inputfun (quote input-funbox) "object" "self" nil) (om-load-inputfun (quote input-funbox) "pitches (list of midicents)" "lmidic" (list 6000)) (om-load-inputfun (quote input-funbox) "velocities (list of values 0-127)" "lvel" (list 100)) (om-load-inputfun (quote input-funbox) "offsets (list of values in ms)" "loffset" (list 0)) (om-load-inputfun (quote input-funbox) "durations (list of values in ms)" "ldur" (list 1000)) (om-load-inputfun (quote input-funbox) "MIDI channels (list of values 0-16)" "lchan" (list 1)))) (om-make-point 155 26) (om-make-point 92 227) (let ((thechord (make-instance (quote chord) :lmidic (quote (6100 4650 5200 3150 3500 3300)) :ldur (quote (1000 1000 1000 1000 1000 1000)) :lvel (quote (100 100 100 100 100 100)) :loffset (quote (0 0 0 0 0 0)) :lchan (quote (1 1 1 1 1 1))))) (load-port-info thechord (quote (0 0 0 0 0 0))) (init-mus-color thechord (quote nil)) (set-extra-pairs thechord (quote nil)) (set-tonalite thechord nil) thechord) "x" nil (pairlis (quote (scale show-stems cursor-mode obj-mode score-mode winpos winsize mode grillestep notechancolor? zoom player inport outport deltapict cmnpref staff fontsize approx)) (list nil (quote t) (quote :normal) 0 0 (om-make-point 400 44) (om-make-point 912 549) 0 1000 nil 1 (quote :midi-player) nil nil (om-make-point 0 0) (let ((newobj (make-instance (quote edition-values)))) (setf (paper-size newobj) (om-make-point 600 800)) (setf (top-margin newobj) 2) (setf (left-margin newobj) 1) (setf (right-margin newobj) 1) (setf (bottom-margin newobj) 1) (setf (orientation newobj) nil) (setf (scale newobj) nil) (setf (system-space newobj) (quote (1))) (setf (system-color newobj) (quote nil)) (setf (line-space newobj) 1) (setf (title newobj) nil) (setf (show-title? newobj) nil) (setf (show-page? newobj) nil) (setf (sheet-id newobj) nil) (setf (page-mode newobj) nil) newobj) (quote ggff) 60 4)) t nil nil nil))) (when (fboundp (quote set-active)) (set-active box nil)) box) (let ((box (om-load-editor-box1 "CHORD" (quote chord) (quote ((om-load-inputfun (quote input-funbox) "object" "self" nil) (om-load-inputfun (quote input-funbox) "pitches (list of midicents)" "lmidic" (list 6000)) (om-load-inputfun (quote input-funbox) "velocities (list of values 0-127)" "lvel" (list 100)) (om-load-inputfun (quote input-funbox) "offsets (list of values in ms)" "loffset" (list 0)) (om-load-inputfun (quote input-funbox) "durations (list of values in ms)" "ldur" (list 1000)) (om-load-inputfun (quote input-funbox) "MIDI channels (list of values 0-16)" "lchan" (list 1)))) (om-make-point 23 80) (om-make-point 108 105) (let ((thechord (make-instance (quote chord) :lmidic (quote (9600 9300 9900 10050 9550 10500)) :ldur (quote (1000 1000 1000 1000 1000 1000)) :lvel (quote (100 100 100 100 100 100)) :loffset (quote (0 0 0 0 0 0)) :lchan (quote (1 1 1 1 1 1))))) (load-port-info thechord (quote (0 0 0 0 0 0))) (init-mus-color thechord (quote nil)) (set-extra-pairs thechord (quote nil)) (set-tonalite thechord nil) thechord) "x" nil (pairlis (quote (scale show-stems cursor-mode obj-mode score-mode winpos winsize mode grillestep notechancolor? zoom player inport outport deltapict cmnpref staff fontsize approx)) (list nil (quote t) (quote :normal) 0 0 (om-make-point 400 44) (om-make-point 912 549) 0 1000 nil 1 (quote :midi-player) nil nil (om-make-point 0 0) (let ((newobj (make-instance (quote edition-values)))) (setf (paper-size newobj) (om-make-point 600 800)) (setf (top-margin newobj) 2) (setf (left-margin newobj) 1) (setf (right-margin newobj) 1) (setf (bottom-margin newobj) 1) (setf (orientation newobj) nil) (setf (scale newobj) nil) (setf (system-space newobj) (quote (1))) (setf (system-color newobj) (quote nil)) (setf (line-space newobj) 1) (setf (title newobj) nil) (setf (show-title? newobj) nil) (setf (show-page? newobj) nil) (setf (sheet-id newobj) nil) (setf (page-mode newobj) nil) newobj) (quote gg) 60 4)) t nil nil nil))) (when (fboundp (quote set-active)) (set-active box nil)) box))) (quote ((4 0 2 0 nil 0) (2 0 3 1 nil 0) (11 1 4 0 nil 0) (6 0 5 1 nil 0) (7 0 6 0 nil 0) (9 0 8 1 nil 0) (10 0 9 0 nil 0) (12 0 11 1 nil 0) (8 1 12 0 nil 0) (5 1 12 1 nil 0))) nil 7.01))
